<mxfile host="app.diagrams.net" agent="Mozilla/5.0 (Windows NT 10.0; Win64; x64) AppleWebKit/537.36 (KHTML, like Gecko) Chrome/122.0.0.0 Safari/537.36" version="26.1.0" pages="11">
  <diagram name="pipe allocation" id="lavcJIb1kMTjzJ8n3uRt">
    <mxGraphModel dx="1050" dy="626" grid="1" gridSize="10" guides="1" tooltips="1" connect="1" arrows="1" fold="1" page="1" pageScale="1" pageWidth="850" pageHeight="1100" math="0" shadow="0">
      <root>
        <mxCell id="0" />
        <mxCell id="1" parent="0" />
        <mxCell id="z0o6mt4O0skC3-Fxf7uf-19" style="edgeStyle=orthogonalEdgeStyle;rounded=0;orthogonalLoop=1;jettySize=auto;html=1;exitX=1;exitY=0.5;exitDx=0;exitDy=0;entryX=0;entryY=0.5;entryDx=0;entryDy=0;dashed=1;dashPattern=1 2;" edge="1" parent="1" source="z0o6mt4O0skC3-Fxf7uf-1" target="z0o6mt4O0skC3-Fxf7uf-3">
          <mxGeometry relative="1" as="geometry" />
        </mxCell>
        <mxCell id="z0o6mt4O0skC3-Fxf7uf-1" value="" style="ellipse;whiteSpace=wrap;html=1;aspect=fixed;" vertex="1" parent="1">
          <mxGeometry x="180" y="100" width="80" height="80" as="geometry" />
        </mxCell>
        <mxCell id="z0o6mt4O0skC3-Fxf7uf-2" value="8" style="text;html=1;align=center;verticalAlign=middle;whiteSpace=wrap;rounded=0;" vertex="1" parent="1">
          <mxGeometry x="190" y="125" width="60" height="30" as="geometry" />
        </mxCell>
        <mxCell id="z0o6mt4O0skC3-Fxf7uf-21" style="edgeStyle=orthogonalEdgeStyle;rounded=0;orthogonalLoop=1;jettySize=auto;html=1;exitX=1;exitY=0.5;exitDx=0;exitDy=0;entryX=0;entryY=0.5;entryDx=0;entryDy=0;dashed=1;" edge="1" parent="1" source="z0o6mt4O0skC3-Fxf7uf-3" target="z0o6mt4O0skC3-Fxf7uf-7">
          <mxGeometry relative="1" as="geometry" />
        </mxCell>
        <mxCell id="z0o6mt4O0skC3-Fxf7uf-3" value="" style="ellipse;whiteSpace=wrap;html=1;aspect=fixed;" vertex="1" parent="1">
          <mxGeometry x="350" y="180" width="80" height="80" as="geometry" />
        </mxCell>
        <mxCell id="z0o6mt4O0skC3-Fxf7uf-4" value="9" style="text;html=1;align=center;verticalAlign=middle;whiteSpace=wrap;rounded=0;" vertex="1" parent="1">
          <mxGeometry x="360" y="205" width="60" height="30" as="geometry" />
        </mxCell>
        <mxCell id="z0o6mt4O0skC3-Fxf7uf-5" value="" style="ellipse;whiteSpace=wrap;html=1;aspect=fixed;" vertex="1" parent="1">
          <mxGeometry x="620" y="210" width="80" height="80" as="geometry" />
        </mxCell>
        <mxCell id="z0o6mt4O0skC3-Fxf7uf-6" value="7" style="text;html=1;align=center;verticalAlign=middle;whiteSpace=wrap;rounded=0;" vertex="1" parent="1">
          <mxGeometry x="630" y="235" width="60" height="35" as="geometry" />
        </mxCell>
        <mxCell id="z0o6mt4O0skC3-Fxf7uf-22" style="edgeStyle=orthogonalEdgeStyle;rounded=0;orthogonalLoop=1;jettySize=auto;html=1;exitX=1;exitY=0.5;exitDx=0;exitDy=0;entryX=0;entryY=0.5;entryDx=0;entryDy=0;shape=link;fillColor=#dae8fc;strokeColor=#6c8ebf;" edge="1" parent="1" source="z0o6mt4O0skC3-Fxf7uf-7" target="z0o6mt4O0skC3-Fxf7uf-5">
          <mxGeometry relative="1" as="geometry">
            <Array as="points">
              <mxPoint x="600" y="250" />
              <mxPoint x="600" y="250" />
            </Array>
          </mxGeometry>
        </mxCell>
        <mxCell id="z0o6mt4O0skC3-Fxf7uf-23" style="edgeStyle=orthogonalEdgeStyle;rounded=0;orthogonalLoop=1;jettySize=auto;html=1;exitX=0.5;exitY=1;exitDx=0;exitDy=0;entryX=0.5;entryY=0;entryDx=0;entryDy=0;dashed=1;" edge="1" parent="1" source="z0o6mt4O0skC3-Fxf7uf-7" target="z0o6mt4O0skC3-Fxf7uf-11">
          <mxGeometry relative="1" as="geometry" />
        </mxCell>
        <mxCell id="z0o6mt4O0skC3-Fxf7uf-7" value="" style="ellipse;whiteSpace=wrap;html=1;aspect=fixed;" vertex="1" parent="1">
          <mxGeometry x="500" y="210" width="80" height="80" as="geometry" />
        </mxCell>
        <mxCell id="z0o6mt4O0skC3-Fxf7uf-8" value="3" style="text;html=1;align=center;verticalAlign=middle;whiteSpace=wrap;rounded=0;" vertex="1" parent="1">
          <mxGeometry x="510" y="235" width="60" height="30" as="geometry" />
        </mxCell>
        <mxCell id="z0o6mt4O0skC3-Fxf7uf-24" style="edgeStyle=orthogonalEdgeStyle;rounded=0;orthogonalLoop=1;jettySize=auto;html=1;exitX=0.5;exitY=1;exitDx=0;exitDy=0;entryX=0.5;entryY=0;entryDx=0;entryDy=0;dashed=1;" edge="1" parent="1" source="z0o6mt4O0skC3-Fxf7uf-11" target="z0o6mt4O0skC3-Fxf7uf-13">
          <mxGeometry relative="1" as="geometry" />
        </mxCell>
        <mxCell id="z0o6mt4O0skC3-Fxf7uf-11" value="" style="ellipse;whiteSpace=wrap;html=1;aspect=fixed;" vertex="1" parent="1">
          <mxGeometry x="500" y="320" width="80" height="80" as="geometry" />
        </mxCell>
        <mxCell id="z0o6mt4O0skC3-Fxf7uf-12" value="10" style="text;html=1;align=center;verticalAlign=middle;whiteSpace=wrap;rounded=0;" vertex="1" parent="1">
          <mxGeometry x="510" y="345" width="60" height="30" as="geometry" />
        </mxCell>
        <mxCell id="z0o6mt4O0skC3-Fxf7uf-25" style="edgeStyle=orthogonalEdgeStyle;rounded=0;orthogonalLoop=1;jettySize=auto;html=1;exitX=1;exitY=0.5;exitDx=0;exitDy=0;entryX=0;entryY=0.5;entryDx=0;entryDy=0;dashed=1;" edge="1" parent="1" source="z0o6mt4O0skC3-Fxf7uf-13" target="z0o6mt4O0skC3-Fxf7uf-15">
          <mxGeometry relative="1" as="geometry" />
        </mxCell>
        <mxCell id="z0o6mt4O0skC3-Fxf7uf-26" style="edgeStyle=orthogonalEdgeStyle;rounded=0;orthogonalLoop=1;jettySize=auto;html=1;exitX=0.5;exitY=1;exitDx=0;exitDy=0;entryX=0.5;entryY=0;entryDx=0;entryDy=0;dashed=1;" edge="1" parent="1" source="z0o6mt4O0skC3-Fxf7uf-13" target="z0o6mt4O0skC3-Fxf7uf-17">
          <mxGeometry relative="1" as="geometry" />
        </mxCell>
        <mxCell id="z0o6mt4O0skC3-Fxf7uf-13" value="" style="ellipse;whiteSpace=wrap;html=1;aspect=fixed;" vertex="1" parent="1">
          <mxGeometry x="490" y="440" width="80" height="80" as="geometry" />
        </mxCell>
        <mxCell id="z0o6mt4O0skC3-Fxf7uf-14" value="2" style="text;html=1;align=center;verticalAlign=middle;whiteSpace=wrap;rounded=0;" vertex="1" parent="1">
          <mxGeometry x="500" y="465" width="60" height="30" as="geometry" />
        </mxCell>
        <mxCell id="z0o6mt4O0skC3-Fxf7uf-15" value="" style="ellipse;whiteSpace=wrap;html=1;aspect=fixed;" vertex="1" parent="1">
          <mxGeometry x="630" y="440" width="80" height="80" as="geometry" />
        </mxCell>
        <mxCell id="z0o6mt4O0skC3-Fxf7uf-16" value="6" style="text;html=1;align=center;verticalAlign=middle;whiteSpace=wrap;rounded=0;" vertex="1" parent="1">
          <mxGeometry x="640" y="465" width="60" height="30" as="geometry" />
        </mxCell>
        <mxCell id="z0o6mt4O0skC3-Fxf7uf-17" value="" style="ellipse;whiteSpace=wrap;html=1;aspect=fixed;" vertex="1" parent="1">
          <mxGeometry x="500" y="560" width="80" height="80" as="geometry" />
        </mxCell>
        <mxCell id="z0o6mt4O0skC3-Fxf7uf-18" value="4" style="text;html=1;align=center;verticalAlign=middle;whiteSpace=wrap;rounded=0;" vertex="1" parent="1">
          <mxGeometry x="510" y="585" width="60" height="30" as="geometry" />
        </mxCell>
      </root>
    </mxGraphModel>
  </diagram>
  <diagram id="yzNRSfvW3h7BH3DgI3ra" name="Length Constraint">
    <mxGraphModel dx="724" dy="432" grid="1" gridSize="10" guides="1" tooltips="1" connect="1" arrows="1" fold="1" page="1" pageScale="1" pageWidth="850" pageHeight="1100" math="0" shadow="0">
      <root>
        <mxCell id="0" />
        <mxCell id="1" parent="0" />
        <mxCell id="Oe0NIqCCweqUemljtHic-1" style="edgeStyle=orthogonalEdgeStyle;rounded=0;orthogonalLoop=1;jettySize=auto;html=1;exitX=1;exitY=0.5;exitDx=0;exitDy=0;entryX=0;entryY=0.5;entryDx=0;entryDy=0;dashed=1;dashPattern=1 2;" edge="1" parent="1" source="Oe0NIqCCweqUemljtHic-2" target="Oe0NIqCCweqUemljtHic-4">
          <mxGeometry relative="1" as="geometry" />
        </mxCell>
        <mxCell id="Oe0NIqCCweqUemljtHic-2" value="" style="ellipse;whiteSpace=wrap;html=1;aspect=fixed;" vertex="1" parent="1">
          <mxGeometry x="180" y="100" width="80" height="80" as="geometry" />
        </mxCell>
        <mxCell id="Oe0NIqCCweqUemljtHic-3" value="8" style="text;html=1;align=center;verticalAlign=middle;whiteSpace=wrap;rounded=0;" vertex="1" parent="1">
          <mxGeometry x="190" y="125" width="60" height="30" as="geometry" />
        </mxCell>
        <mxCell id="Oe0NIqCCweqUemljtHic-4" value="" style="ellipse;whiteSpace=wrap;html=1;aspect=fixed;" vertex="1" parent="1">
          <mxGeometry x="425" y="100" width="80" height="80" as="geometry" />
        </mxCell>
        <mxCell id="Oe0NIqCCweqUemljtHic-5" value="9" style="text;html=1;align=center;verticalAlign=middle;whiteSpace=wrap;rounded=0;" vertex="1" parent="1">
          <mxGeometry x="435" y="125" width="60" height="30" as="geometry" />
        </mxCell>
        <mxCell id="Oe0NIqCCweqUemljtHic-7" value="" style="ellipse;whiteSpace=wrap;html=1;aspect=fixed;" vertex="1" parent="1">
          <mxGeometry x="180" y="250" width="80" height="80" as="geometry" />
        </mxCell>
        <mxCell id="Oe0NIqCCweqUemljtHic-8" value="8" style="text;html=1;align=center;verticalAlign=middle;whiteSpace=wrap;rounded=0;" vertex="1" parent="1">
          <mxGeometry x="190" y="275" width="60" height="30" as="geometry" />
        </mxCell>
        <mxCell id="Oe0NIqCCweqUemljtHic-9" value="" style="ellipse;whiteSpace=wrap;html=1;aspect=fixed;" vertex="1" parent="1">
          <mxGeometry x="425" y="250" width="80" height="80" as="geometry" />
        </mxCell>
        <mxCell id="Oe0NIqCCweqUemljtHic-10" value="9" style="text;html=1;align=center;verticalAlign=middle;whiteSpace=wrap;rounded=0;" vertex="1" parent="1">
          <mxGeometry x="435" y="275" width="60" height="30" as="geometry" />
        </mxCell>
        <mxCell id="Oe0NIqCCweqUemljtHic-12" value="" style="shape=flexArrow;endArrow=classic;html=1;rounded=0;width=1.6666666666666665;endSize=3.463888888888889;exitX=1;exitY=0.5;exitDx=0;exitDy=0;fillColor=#dae8fc;strokeColor=#6c8ebf;" edge="1" parent="1" source="Oe0NIqCCweqUemljtHic-7">
          <mxGeometry width="50" height="50" relative="1" as="geometry">
            <mxPoint x="230" y="470" as="sourcePoint" />
            <mxPoint x="310" y="290" as="targetPoint" />
          </mxGeometry>
        </mxCell>
        <mxCell id="Oe0NIqCCweqUemljtHic-13" value="" style="shape=flexArrow;endArrow=classic;html=1;rounded=0;width=26.4;endSize=8.116;exitX=1;exitY=0.5;exitDx=0;exitDy=0;fillColor=#dae8fc;strokeColor=#6c8ebf;" edge="1" parent="1">
          <mxGeometry width="50" height="50" relative="1" as="geometry">
            <mxPoint x="310" y="289.93" as="sourcePoint" />
            <mxPoint x="360" y="289.93" as="targetPoint" />
          </mxGeometry>
        </mxCell>
        <mxCell id="Oe0NIqCCweqUemljtHic-16" value="" style="shape=flexArrow;endArrow=classic;html=1;rounded=0;width=15;endSize=7.136111111111111;exitX=1;exitY=0.5;exitDx=0;exitDy=0;entryX=0;entryY=0.5;entryDx=0;entryDy=0;fillColor=#dae8fc;strokeColor=#6c8ebf;" edge="1" parent="1" target="Oe0NIqCCweqUemljtHic-9">
          <mxGeometry width="50" height="50" relative="1" as="geometry">
            <mxPoint x="360" y="289.86" as="sourcePoint" />
            <mxPoint x="410" y="289.86" as="targetPoint" />
          </mxGeometry>
        </mxCell>
        <mxCell id="Oe0NIqCCweqUemljtHic-17" value="" style="shape=flexArrow;endArrow=classic;html=1;rounded=0;fillColor=#fff2cc;strokeColor=#d6b656;dashed=1;" edge="1" parent="1">
          <mxGeometry width="50" height="50" relative="1" as="geometry">
            <mxPoint x="340" y="190" as="sourcePoint" />
            <mxPoint x="340" y="240" as="targetPoint" />
          </mxGeometry>
        </mxCell>
      </root>
    </mxGraphModel>
  </diagram>
  <diagram id="54Y1p3DXvX7TR5je_nhD" name="Link Headloss">
    <mxGraphModel dx="1050" dy="626" grid="1" gridSize="10" guides="1" tooltips="1" connect="1" arrows="1" fold="1" page="1" pageScale="1" pageWidth="850" pageHeight="1100" math="0" shadow="0">
      <root>
        <mxCell id="0" />
        <mxCell id="1" parent="0" />
        <mxCell id="09RVw9-zjHX97Uov1Umm-1" value="" style="ellipse;whiteSpace=wrap;html=1;aspect=fixed;" vertex="1" parent="1">
          <mxGeometry x="180" y="250" width="80" height="80" as="geometry" />
        </mxCell>
        <mxCell id="09RVw9-zjHX97Uov1Umm-2" value="8" style="text;html=1;align=center;verticalAlign=middle;whiteSpace=wrap;rounded=0;" vertex="1" parent="1">
          <mxGeometry x="190" y="275" width="60" height="30" as="geometry" />
        </mxCell>
        <mxCell id="09RVw9-zjHX97Uov1Umm-3" value="" style="ellipse;whiteSpace=wrap;html=1;aspect=fixed;" vertex="1" parent="1">
          <mxGeometry x="440" y="330" width="80" height="80" as="geometry" />
        </mxCell>
        <mxCell id="09RVw9-zjHX97Uov1Umm-4" value="9" style="text;html=1;align=center;verticalAlign=middle;whiteSpace=wrap;rounded=0;" vertex="1" parent="1">
          <mxGeometry x="450" y="355" width="60" height="30" as="geometry" />
        </mxCell>
        <mxCell id="09RVw9-zjHX97Uov1Umm-5" value="" style="shape=flexArrow;endArrow=classic;html=1;rounded=0;width=1.6666666666666665;endSize=3.463888888888889;exitX=1;exitY=0.5;exitDx=0;exitDy=0;fillColor=#dae8fc;strokeColor=#6c8ebf;" edge="1" parent="1" source="09RVw9-zjHX97Uov1Umm-1">
          <mxGeometry width="50" height="50" relative="1" as="geometry">
            <mxPoint x="230" y="470" as="sourcePoint" />
            <mxPoint x="310" y="290" as="targetPoint" />
          </mxGeometry>
        </mxCell>
        <mxCell id="09RVw9-zjHX97Uov1Umm-6" value="" style="shape=flexArrow;endArrow=classic;html=1;rounded=0;width=26.4;endSize=8.116;exitX=1;exitY=0.5;exitDx=0;exitDy=0;fillColor=#dae8fc;strokeColor=#6c8ebf;" edge="1" parent="1">
          <mxGeometry width="50" height="50" relative="1" as="geometry">
            <mxPoint x="310" y="289.93" as="sourcePoint" />
            <mxPoint x="360" y="289.93" as="targetPoint" />
          </mxGeometry>
        </mxCell>
        <mxCell id="09RVw9-zjHX97Uov1Umm-7" value="" style="shape=flexArrow;endArrow=classic;html=1;rounded=0;width=15;endSize=7.136111111111111;exitX=1;exitY=0.5;exitDx=0;exitDy=0;entryX=0;entryY=0.5;entryDx=0;entryDy=0;fillColor=#dae8fc;strokeColor=#6c8ebf;" edge="1" parent="1" target="09RVw9-zjHX97Uov1Umm-3">
          <mxGeometry width="50" height="50" relative="1" as="geometry">
            <mxPoint x="360" y="289.86" as="sourcePoint" />
            <mxPoint x="410" y="289.86" as="targetPoint" />
          </mxGeometry>
        </mxCell>
        <mxCell id="09RVw9-zjHX97Uov1Umm-8" value="530" style="text;html=1;align=center;verticalAlign=middle;whiteSpace=wrap;rounded=0;fillColor=#dae8fc;strokeColor=#6c8ebf;" vertex="1" parent="1">
          <mxGeometry x="160" y="340" width="60" height="30" as="geometry" />
        </mxCell>
        <mxCell id="09RVw9-zjHX97Uov1Umm-9" value="417" style="text;html=1;align=center;verticalAlign=middle;whiteSpace=wrap;rounded=0;fillColor=#dae8fc;strokeColor=#6c8ebf;" vertex="1" parent="1">
          <mxGeometry x="500" y="410" width="60" height="30" as="geometry" />
        </mxCell>
        <mxCell id="09RVw9-zjHX97Uov1Umm-10" value="30" style="text;html=1;align=center;verticalAlign=middle;whiteSpace=wrap;rounded=0;fillColor=#f8cecc;strokeColor=#b85450;" vertex="1" parent="1">
          <mxGeometry x="330" y="240" width="60" height="30" as="geometry" />
        </mxCell>
        <mxCell id="09RVw9-zjHX97Uov1Umm-11" value="13" style="text;html=1;align=center;verticalAlign=middle;whiteSpace=wrap;rounded=0;fillColor=#f8cecc;strokeColor=#b85450;" vertex="1" parent="1">
          <mxGeometry x="250" y="220" width="60" height="30" as="geometry" />
        </mxCell>
        <mxCell id="09RVw9-zjHX97Uov1Umm-12" value="70" style="text;html=1;align=center;verticalAlign=middle;whiteSpace=wrap;rounded=0;fillColor=#f8cecc;strokeColor=#b85450;" vertex="1" parent="1">
          <mxGeometry x="395" y="275" width="60" height="30" as="geometry" />
        </mxCell>
      </root>
    </mxGraphModel>
  </diagram>
  <diagram id="b0K-RiZDop7lZI51vvJY" name="Link Headloss with Pump">
    <mxGraphModel dx="1050" dy="626" grid="1" gridSize="10" guides="1" tooltips="1" connect="1" arrows="1" fold="1" page="1" pageScale="1" pageWidth="850" pageHeight="1100" math="0" shadow="0">
      <root>
        <mxCell id="0" />
        <mxCell id="1" parent="0" />
        <mxCell id="Jy4U3hhvbw_RA0cod70s-1" value="" style="ellipse;whiteSpace=wrap;html=1;aspect=fixed;" vertex="1" parent="1">
          <mxGeometry x="180" y="250" width="80" height="80" as="geometry" />
        </mxCell>
        <mxCell id="Jy4U3hhvbw_RA0cod70s-2" value="8" style="text;html=1;align=center;verticalAlign=middle;whiteSpace=wrap;rounded=0;" vertex="1" parent="1">
          <mxGeometry x="190" y="275" width="60" height="30" as="geometry" />
        </mxCell>
        <mxCell id="Jy4U3hhvbw_RA0cod70s-3" value="" style="ellipse;whiteSpace=wrap;html=1;aspect=fixed;" vertex="1" parent="1">
          <mxGeometry x="440" y="330" width="80" height="80" as="geometry" />
        </mxCell>
        <mxCell id="Jy4U3hhvbw_RA0cod70s-4" value="9" style="text;html=1;align=center;verticalAlign=middle;whiteSpace=wrap;rounded=0;" vertex="1" parent="1">
          <mxGeometry x="450" y="355" width="60" height="30" as="geometry" />
        </mxCell>
        <mxCell id="Jy4U3hhvbw_RA0cod70s-5" value="" style="shape=flexArrow;endArrow=classic;html=1;rounded=0;width=1.6666666666666665;endSize=3.463888888888889;exitX=1;exitY=0.5;exitDx=0;exitDy=0;fillColor=#dae8fc;strokeColor=#6c8ebf;" edge="1" parent="1" source="Jy4U3hhvbw_RA0cod70s-1">
          <mxGeometry width="50" height="50" relative="1" as="geometry">
            <mxPoint x="230" y="470" as="sourcePoint" />
            <mxPoint x="310" y="290" as="targetPoint" />
          </mxGeometry>
        </mxCell>
        <mxCell id="Jy4U3hhvbw_RA0cod70s-6" value="" style="shape=flexArrow;endArrow=classic;html=1;rounded=0;width=26.4;endSize=8.116;exitX=1;exitY=0.5;exitDx=0;exitDy=0;fillColor=#dae8fc;strokeColor=#6c8ebf;" edge="1" parent="1">
          <mxGeometry width="50" height="50" relative="1" as="geometry">
            <mxPoint x="310" y="289.93" as="sourcePoint" />
            <mxPoint x="360" y="289.93" as="targetPoint" />
          </mxGeometry>
        </mxCell>
        <mxCell id="Jy4U3hhvbw_RA0cod70s-7" value="" style="shape=flexArrow;endArrow=classic;html=1;rounded=0;width=15;endSize=7.136111111111111;exitX=1;exitY=0.5;exitDx=0;exitDy=0;entryX=0;entryY=0.5;entryDx=0;entryDy=0;fillColor=#dae8fc;strokeColor=#6c8ebf;" edge="1" parent="1" target="Jy4U3hhvbw_RA0cod70s-3">
          <mxGeometry width="50" height="50" relative="1" as="geometry">
            <mxPoint x="360" y="289.86" as="sourcePoint" />
            <mxPoint x="410" y="289.86" as="targetPoint" />
          </mxGeometry>
        </mxCell>
        <mxCell id="Jy4U3hhvbw_RA0cod70s-8" value="530" style="text;html=1;align=center;verticalAlign=middle;whiteSpace=wrap;rounded=0;fillColor=#dae8fc;strokeColor=#6c8ebf;" vertex="1" parent="1">
          <mxGeometry x="160" y="340" width="60" height="30" as="geometry" />
        </mxCell>
        <mxCell id="Jy4U3hhvbw_RA0cod70s-9" value="467" style="text;html=1;align=center;verticalAlign=middle;whiteSpace=wrap;rounded=0;fillColor=#dae8fc;strokeColor=#6c8ebf;" vertex="1" parent="1">
          <mxGeometry x="500" y="410" width="60" height="30" as="geometry" />
        </mxCell>
        <mxCell id="Jy4U3hhvbw_RA0cod70s-10" value="30" style="text;html=1;align=center;verticalAlign=middle;whiteSpace=wrap;rounded=0;fillColor=#f8cecc;strokeColor=#b85450;" vertex="1" parent="1">
          <mxGeometry x="330" y="240" width="60" height="30" as="geometry" />
        </mxCell>
        <mxCell id="Jy4U3hhvbw_RA0cod70s-11" value="13" style="text;html=1;align=center;verticalAlign=middle;whiteSpace=wrap;rounded=0;fillColor=#f8cecc;strokeColor=#b85450;" vertex="1" parent="1">
          <mxGeometry x="250" y="220" width="60" height="30" as="geometry" />
        </mxCell>
        <mxCell id="Jy4U3hhvbw_RA0cod70s-12" value="70" style="text;html=1;align=center;verticalAlign=middle;whiteSpace=wrap;rounded=0;fillColor=#f8cecc;strokeColor=#b85450;" vertex="1" parent="1">
          <mxGeometry x="395" y="275" width="60" height="30" as="geometry" />
        </mxCell>
        <mxCell id="Jy4U3hhvbw_RA0cod70s-13" value="" style="triangle;whiteSpace=wrap;html=1;rotation=90;fillColor=#d5e8d4;strokeColor=#82b366;" vertex="1" parent="1">
          <mxGeometry x="200" y="200" width="30" height="40" as="geometry" />
        </mxCell>
        <mxCell id="Jy4U3hhvbw_RA0cod70s-14" value="50" style="text;html=1;align=center;verticalAlign=middle;whiteSpace=wrap;rounded=0;fillColor=#d5e8d4;strokeColor=#82b366;" vertex="1" parent="1">
          <mxGeometry x="185" y="160" width="60" height="30" as="geometry" />
        </mxCell>
        <mxCell id="Jy4U3hhvbw_RA0cod70s-16" value="Pump" style="text;html=1;align=center;verticalAlign=middle;whiteSpace=wrap;rounded=0;" vertex="1" parent="1">
          <mxGeometry x="120" y="210" width="60" height="30" as="geometry" />
        </mxCell>
      </root>
    </mxGraphModel>
  </diagram>
  <diagram id="PVlbtT0s_HJwDsSDDY50" name="Primary and Secondary">
    <mxGraphModel dx="1909" dy="1138" grid="1" gridSize="10" guides="1" tooltips="1" connect="1" arrows="1" fold="1" page="1" pageScale="1" pageWidth="850" pageHeight="1100" math="0" shadow="0">
      <root>
        <mxCell id="0" />
        <mxCell id="1" parent="0" />
        <mxCell id="hHP0nIDgZs9wyyibkb5_-5" style="edgeStyle=orthogonalEdgeStyle;rounded=0;orthogonalLoop=1;jettySize=auto;html=1;exitX=1;exitY=0.5;exitDx=0;exitDy=0;entryX=0.16;entryY=0.55;entryDx=0;entryDy=0;entryPerimeter=0;" edge="1" parent="1" source="hHP0nIDgZs9wyyibkb5_-1" target="hHP0nIDgZs9wyyibkb5_-3">
          <mxGeometry relative="1" as="geometry" />
        </mxCell>
        <mxCell id="hHP0nIDgZs9wyyibkb5_-1" value="" style="ellipse;whiteSpace=wrap;html=1;aspect=fixed;" vertex="1" parent="1">
          <mxGeometry x="20" y="90" width="80" height="80" as="geometry" />
        </mxCell>
        <mxCell id="hHP0nIDgZs9wyyibkb5_-2" value="8" style="text;html=1;align=center;verticalAlign=middle;whiteSpace=wrap;rounded=0;" vertex="1" parent="1">
          <mxGeometry x="30" y="115" width="60" height="30" as="geometry" />
        </mxCell>
        <mxCell id="hHP0nIDgZs9wyyibkb5_-3" value="" style="ellipse;shape=cloud;whiteSpace=wrap;html=1;dashed=1;fillColor=#f8cecc;strokeColor=#b85450;" vertex="1" parent="1">
          <mxGeometry x="230" y="110" width="310" height="320" as="geometry" />
        </mxCell>
        <mxCell id="hHP0nIDgZs9wyyibkb5_-6" value="Primary Network" style="text;html=1;align=center;verticalAlign=middle;whiteSpace=wrap;rounded=0;" vertex="1" parent="1">
          <mxGeometry x="350" y="255" width="60" height="30" as="geometry" />
        </mxCell>
        <mxCell id="hHP0nIDgZs9wyyibkb5_-7" value="" style="ellipse;shape=cloud;whiteSpace=wrap;html=1;dashed=1;fillColor=#fff2cc;strokeColor=#d6b656;" vertex="1" parent="1">
          <mxGeometry x="236.25" y="520" width="473.75" height="230" as="geometry" />
        </mxCell>
        <mxCell id="hHP0nIDgZs9wyyibkb5_-8" value="Secondary Network" style="text;html=1;align=center;verticalAlign=middle;whiteSpace=wrap;rounded=0;" vertex="1" parent="1">
          <mxGeometry x="460" y="605" width="60" height="30" as="geometry" />
        </mxCell>
        <mxCell id="hHP0nIDgZs9wyyibkb5_-9" style="edgeStyle=orthogonalEdgeStyle;rounded=0;orthogonalLoop=1;jettySize=auto;html=1;exitX=0.55;exitY=0.95;exitDx=0;exitDy=0;exitPerimeter=0;" edge="1" parent="1" source="hHP0nIDgZs9wyyibkb5_-3">
          <mxGeometry relative="1" as="geometry">
            <mxPoint x="470" y="450" as="targetPoint" />
          </mxGeometry>
        </mxCell>
        <mxCell id="hHP0nIDgZs9wyyibkb5_-10" value="" style="shape=cylinder3;whiteSpace=wrap;html=1;boundedLbl=1;backgroundOutline=1;size=15;fillColor=#fff2cc;strokeColor=#d6b656;" vertex="1" parent="1">
          <mxGeometry x="470" y="410" width="60" height="80" as="geometry" />
        </mxCell>
        <mxCell id="hHP0nIDgZs9wyyibkb5_-15" style="edgeStyle=orthogonalEdgeStyle;rounded=0;orthogonalLoop=1;jettySize=auto;html=1;exitX=0.5;exitY=1;exitDx=0;exitDy=0;exitPerimeter=0;entryX=0.625;entryY=0.2;entryDx=0;entryDy=0;entryPerimeter=0;" edge="1" parent="1" source="hHP0nIDgZs9wyyibkb5_-10" target="hHP0nIDgZs9wyyibkb5_-7">
          <mxGeometry relative="1" as="geometry" />
        </mxCell>
      </root>
    </mxGraphModel>
  </diagram>
  <diagram id="NUxJbDBJwA6gobgQ2TIV" name="Tank pressure">
    <mxGraphModel dx="1050" dy="626" grid="1" gridSize="10" guides="1" tooltips="1" connect="1" arrows="1" fold="1" page="1" pageScale="1" pageWidth="850" pageHeight="1100" math="0" shadow="0">
      <root>
        <mxCell id="0" />
        <mxCell id="1" parent="0" />
        <mxCell id="GxSOkwCafGD88SeAur9N-1" value="" style="ellipse;whiteSpace=wrap;html=1;aspect=fixed;" vertex="1" parent="1">
          <mxGeometry x="670" y="210" width="80" height="80" as="geometry" />
        </mxCell>
        <mxCell id="GxSOkwCafGD88SeAur9N-2" value="7" style="text;html=1;align=center;verticalAlign=middle;whiteSpace=wrap;rounded=0;" vertex="1" parent="1">
          <mxGeometry x="680" y="235" width="60" height="35" as="geometry" />
        </mxCell>
        <mxCell id="GxSOkwCafGD88SeAur9N-3" style="edgeStyle=orthogonalEdgeStyle;rounded=0;orthogonalLoop=1;jettySize=auto;html=1;exitX=1;exitY=0.5;exitDx=0;exitDy=0;entryX=0;entryY=0.5;entryDx=0;entryDy=0;shape=flexArrow;fillColor=#dae8fc;strokeColor=#6c8ebf;" edge="1" parent="1" source="GxSOkwCafGD88SeAur9N-5" target="GxSOkwCafGD88SeAur9N-1">
          <mxGeometry relative="1" as="geometry" />
        </mxCell>
        <mxCell id="GxSOkwCafGD88SeAur9N-4" style="edgeStyle=orthogonalEdgeStyle;rounded=0;orthogonalLoop=1;jettySize=auto;html=1;exitX=0.5;exitY=1;exitDx=0;exitDy=0;entryX=0.5;entryY=0;entryDx=0;entryDy=0;shape=flexArrow;fillColor=#dae8fc;strokeColor=#6c8ebf;" edge="1" parent="1" source="GxSOkwCafGD88SeAur9N-5" target="GxSOkwCafGD88SeAur9N-8">
          <mxGeometry relative="1" as="geometry" />
        </mxCell>
        <mxCell id="GxSOkwCafGD88SeAur9N-5" value="" style="ellipse;whiteSpace=wrap;html=1;aspect=fixed;" vertex="1" parent="1">
          <mxGeometry x="500" y="210" width="80" height="80" as="geometry" />
        </mxCell>
        <mxCell id="GxSOkwCafGD88SeAur9N-6" value="3" style="text;html=1;align=center;verticalAlign=middle;whiteSpace=wrap;rounded=0;" vertex="1" parent="1">
          <mxGeometry x="510" y="235" width="60" height="30" as="geometry" />
        </mxCell>
        <mxCell id="GxSOkwCafGD88SeAur9N-7" style="edgeStyle=orthogonalEdgeStyle;rounded=0;orthogonalLoop=1;jettySize=auto;html=1;exitX=0.5;exitY=1;exitDx=0;exitDy=0;entryX=0.5;entryY=0;entryDx=0;entryDy=0;fillColor=#dae8fc;strokeColor=#6c8ebf;shape=flexArrow;" edge="1" parent="1" source="GxSOkwCafGD88SeAur9N-8" target="GxSOkwCafGD88SeAur9N-11">
          <mxGeometry relative="1" as="geometry" />
        </mxCell>
        <mxCell id="GxSOkwCafGD88SeAur9N-8" value="" style="ellipse;whiteSpace=wrap;html=1;aspect=fixed;" vertex="1" parent="1">
          <mxGeometry x="500" y="345" width="80" height="80" as="geometry" />
        </mxCell>
        <mxCell id="GxSOkwCafGD88SeAur9N-9" value="10" style="text;html=1;align=center;verticalAlign=middle;whiteSpace=wrap;rounded=0;" vertex="1" parent="1">
          <mxGeometry x="510" y="370" width="60" height="30" as="geometry" />
        </mxCell>
        <mxCell id="GxSOkwCafGD88SeAur9N-10" style="edgeStyle=orthogonalEdgeStyle;rounded=0;orthogonalLoop=1;jettySize=auto;html=1;exitX=1;exitY=0.5;exitDx=0;exitDy=0;entryX=0;entryY=0.5;entryDx=0;entryDy=0;shape=flexArrow;fillColor=#dae8fc;strokeColor=#6c8ebf;" edge="1" parent="1" source="GxSOkwCafGD88SeAur9N-11" target="GxSOkwCafGD88SeAur9N-13">
          <mxGeometry relative="1" as="geometry" />
        </mxCell>
        <mxCell id="GxSOkwCafGD88SeAur9N-11" value="" style="ellipse;whiteSpace=wrap;html=1;aspect=fixed;" vertex="1" parent="1">
          <mxGeometry x="500" y="490" width="80" height="80" as="geometry" />
        </mxCell>
        <mxCell id="GxSOkwCafGD88SeAur9N-12" value="2" style="text;html=1;align=center;verticalAlign=middle;whiteSpace=wrap;rounded=0;" vertex="1" parent="1">
          <mxGeometry x="510" y="515" width="60" height="30" as="geometry" />
        </mxCell>
        <mxCell id="GxSOkwCafGD88SeAur9N-13" value="" style="ellipse;whiteSpace=wrap;html=1;aspect=fixed;" vertex="1" parent="1">
          <mxGeometry x="630" y="490" width="80" height="80" as="geometry" />
        </mxCell>
        <mxCell id="GxSOkwCafGD88SeAur9N-14" value="6" style="text;html=1;align=center;verticalAlign=middle;whiteSpace=wrap;rounded=0;" vertex="1" parent="1">
          <mxGeometry x="640" y="515" width="60" height="30" as="geometry" />
        </mxCell>
        <mxCell id="GxSOkwCafGD88SeAur9N-16" value="" style="shape=flexArrow;endArrow=classic;html=1;rounded=0;entryX=0;entryY=0.5;entryDx=0;entryDy=0;fillColor=#dae8fc;strokeColor=#6c8ebf;" edge="1" parent="1" target="GxSOkwCafGD88SeAur9N-5">
          <mxGeometry width="50" height="50" relative="1" as="geometry">
            <mxPoint x="380" y="250" as="sourcePoint" />
            <mxPoint x="450" y="300" as="targetPoint" />
          </mxGeometry>
        </mxCell>
        <mxCell id="sczGhcX6u2vXqYV2isct-1" value="13" style="text;html=1;align=center;verticalAlign=middle;whiteSpace=wrap;rounded=0;fillColor=#f8cecc;strokeColor=#b85450;" vertex="1" parent="1">
          <mxGeometry x="600" y="270" width="40" height="30" as="geometry" />
        </mxCell>
        <mxCell id="sczGhcX6u2vXqYV2isct-2" value="40" style="text;html=1;align=center;verticalAlign=middle;whiteSpace=wrap;rounded=0;fillColor=#f8cecc;strokeColor=#b85450;" vertex="1" parent="1">
          <mxGeometry x="460" y="290" width="40" height="30" as="geometry" />
        </mxCell>
        <mxCell id="sczGhcX6u2vXqYV2isct-3" value="60" style="text;html=1;align=center;verticalAlign=middle;whiteSpace=wrap;rounded=0;fillColor=#dae8fc;strokeColor=#6c8ebf;" vertex="1" parent="1">
          <mxGeometry x="510" y="155" width="60" height="30" as="geometry" />
        </mxCell>
        <mxCell id="sczGhcX6u2vXqYV2isct-4" value="12" style="text;html=1;align=center;verticalAlign=middle;whiteSpace=wrap;rounded=0;fillColor=#f8cecc;strokeColor=#b85450;" vertex="1" parent="1">
          <mxGeometry x="560" y="430" width="40" height="30" as="geometry" />
        </mxCell>
        <mxCell id="sczGhcX6u2vXqYV2isct-6" value="47" style="text;html=1;align=center;verticalAlign=middle;whiteSpace=wrap;rounded=0;fillColor=#dae8fc;strokeColor=#6c8ebf;" vertex="1" parent="1">
          <mxGeometry x="750" y="185" width="40" height="30" as="geometry" />
        </mxCell>
        <mxCell id="sczGhcX6u2vXqYV2isct-7" value="" style="shape=cylinder3;whiteSpace=wrap;html=1;boundedLbl=1;backgroundOutline=1;size=15;fillColor=#fff2cc;strokeColor=#d6b656;" vertex="1" parent="1">
          <mxGeometry x="430" y="355" width="60" height="80" as="geometry" />
        </mxCell>
        <mxCell id="sczGhcX6u2vXqYV2isct-8" value="30" style="text;html=1;align=center;verticalAlign=middle;whiteSpace=wrap;rounded=0;fillColor=#fff2cc;strokeColor=#d6b656;" vertex="1" parent="1">
          <mxGeometry x="350" y="395" width="60" height="30" as="geometry" />
        </mxCell>
        <mxCell id="sczGhcX6u2vXqYV2isct-9" value="20" style="text;html=1;align=center;verticalAlign=middle;whiteSpace=wrap;rounded=0;fillColor=#dae8fc;strokeColor=#6c8ebf;" vertex="1" parent="1">
          <mxGeometry x="590" y="355" width="40" height="30" as="geometry" />
        </mxCell>
        <mxCell id="sczGhcX6u2vXqYV2isct-10" value="17" style="text;html=1;align=center;verticalAlign=middle;whiteSpace=wrap;rounded=0;fillColor=#dae8fc;strokeColor=#6c8ebf;" vertex="1" parent="1">
          <mxGeometry x="425" y="530" width="60" height="30" as="geometry" />
        </mxCell>
      </root>
    </mxGraphModel>
  </diagram>
  <diagram id="-RYGvctSJ-uKTQYNr9Mg" name="Page-7">
    <mxGraphModel dx="1050" dy="626" grid="1" gridSize="10" guides="1" tooltips="1" connect="1" arrows="1" fold="1" page="1" pageScale="1" pageWidth="850" pageHeight="1100" math="0" shadow="0">
      <root>
        <mxCell id="0" />
        <mxCell id="1" parent="0" />
        <mxCell id="mO6w4fzcQ1OnrUy_VPvV-1" value="" style="shape=cylinder3;whiteSpace=wrap;html=1;boundedLbl=1;backgroundOutline=1;size=15;fillColor=#fff2cc;strokeColor=#d6b656;" vertex="1" parent="1">
          <mxGeometry x="450" y="150" width="60" height="80" as="geometry" />
        </mxCell>
        <mxCell id="mO6w4fzcQ1OnrUy_VPvV-2" value="" style="ellipse;whiteSpace=wrap;html=1;aspect=fixed;" vertex="1" parent="1">
          <mxGeometry x="385" y="350" width="80" height="80" as="geometry" />
        </mxCell>
        <mxCell id="mO6w4fzcQ1OnrUy_VPvV-6" style="edgeStyle=orthogonalEdgeStyle;rounded=0;orthogonalLoop=1;jettySize=auto;html=1;exitX=1;exitY=0.5;exitDx=0;exitDy=0;" edge="1" parent="1" source="mO6w4fzcQ1OnrUy_VPvV-4" target="mO6w4fzcQ1OnrUy_VPvV-5">
          <mxGeometry relative="1" as="geometry" />
        </mxCell>
        <mxCell id="mO6w4fzcQ1OnrUy_VPvV-4" value="" style="ellipse;whiteSpace=wrap;html=1;aspect=fixed;" vertex="1" parent="1">
          <mxGeometry x="440" y="250" width="80" height="80" as="geometry" />
        </mxCell>
        <mxCell id="mO6w4fzcQ1OnrUy_VPvV-5" value="" style="ellipse;whiteSpace=wrap;html=1;aspect=fixed;" vertex="1" parent="1">
          <mxGeometry x="630" y="260" width="80" height="80" as="geometry" />
        </mxCell>
        <mxCell id="mO6w4fzcQ1OnrUy_VPvV-7" style="edgeStyle=orthogonalEdgeStyle;rounded=0;orthogonalLoop=1;jettySize=auto;html=1;exitX=0.5;exitY=1;exitDx=0;exitDy=0;entryX=0.682;entryY=-0.01;entryDx=0;entryDy=0;entryPerimeter=0;" edge="1" parent="1" source="mO6w4fzcQ1OnrUy_VPvV-4" target="mO6w4fzcQ1OnrUy_VPvV-2">
          <mxGeometry relative="1" as="geometry" />
        </mxCell>
        <mxCell id="mO6w4fzcQ1OnrUy_VPvV-10" style="edgeStyle=orthogonalEdgeStyle;rounded=0;orthogonalLoop=1;jettySize=auto;html=1;exitX=1;exitY=0.5;exitDx=0;exitDy=0;entryX=0;entryY=0.5;entryDx=0;entryDy=0;fillColor=#f8cecc;strokeColor=#000000;" edge="1" parent="1" source="mO6w4fzcQ1OnrUy_VPvV-9" target="mO6w4fzcQ1OnrUy_VPvV-4">
          <mxGeometry relative="1" as="geometry" />
        </mxCell>
        <mxCell id="mO6w4fzcQ1OnrUy_VPvV-9" value="" style="ellipse;whiteSpace=wrap;html=1;aspect=fixed;" vertex="1" parent="1">
          <mxGeometry x="210" y="250" width="80" height="80" as="geometry" />
        </mxCell>
        <mxCell id="mO6w4fzcQ1OnrUy_VPvV-11" value="30" style="text;html=1;align=center;verticalAlign=middle;whiteSpace=wrap;rounded=0;fillColor=#dae8fc;strokeColor=#6c8ebf;" vertex="1" parent="1">
          <mxGeometry x="660" y="200" width="60" height="30" as="geometry" />
        </mxCell>
        <mxCell id="mO6w4fzcQ1OnrUy_VPvV-12" value="10" style="text;html=1;align=center;verticalAlign=middle;whiteSpace=wrap;rounded=0;fillColor=#dae8fc;strokeColor=#6c8ebf;" vertex="1" parent="1">
          <mxGeometry x="350" y="230" width="60" height="30" as="geometry" />
        </mxCell>
        <mxCell id="mO6w4fzcQ1OnrUy_VPvV-13" value="20" style="text;html=1;align=center;verticalAlign=middle;whiteSpace=wrap;rounded=0;fillColor=#dae8fc;strokeColor=#6c8ebf;" vertex="1" parent="1">
          <mxGeometry x="475" y="385" width="60" height="30" as="geometry" />
        </mxCell>
        <mxCell id="mO6w4fzcQ1OnrUy_VPvV-14" value="" style="endArrow=classic;html=1;rounded=0;" edge="1" parent="1">
          <mxGeometry width="50" height="50" relative="1" as="geometry">
            <mxPoint x="520" y="200" as="sourcePoint" />
            <mxPoint x="620" y="200" as="targetPoint" />
          </mxGeometry>
        </mxCell>
        <mxCell id="mO6w4fzcQ1OnrUy_VPvV-15" value="40" style="text;html=1;align=center;verticalAlign=middle;whiteSpace=wrap;rounded=0;fillColor=#fff2cc;strokeColor=#d6b656;" vertex="1" parent="1">
          <mxGeometry x="550" y="160" width="60" height="30" as="geometry" />
        </mxCell>
      </root>
    </mxGraphModel>
  </diagram>
  <diagram id="dq_H6rYAM0LNbsap5JMp" name="pump on of">
    <mxGraphModel dx="1050" dy="626" grid="1" gridSize="10" guides="1" tooltips="1" connect="1" arrows="1" fold="1" page="1" pageScale="1" pageWidth="850" pageHeight="1100" math="0" shadow="0">
      <root>
        <mxCell id="0" />
        <mxCell id="1" parent="0" />
        <mxCell id="_SxEJ-U8-ntZZmofRHmp-1" value="" style="ellipse;whiteSpace=wrap;html=1;aspect=fixed;" vertex="1" parent="1">
          <mxGeometry x="180" y="250" width="80" height="80" as="geometry" />
        </mxCell>
        <mxCell id="_SxEJ-U8-ntZZmofRHmp-2" value="8" style="text;html=1;align=center;verticalAlign=middle;whiteSpace=wrap;rounded=0;" vertex="1" parent="1">
          <mxGeometry x="190" y="275" width="60" height="30" as="geometry" />
        </mxCell>
        <mxCell id="_SxEJ-U8-ntZZmofRHmp-3" value="" style="ellipse;whiteSpace=wrap;html=1;aspect=fixed;" vertex="1" parent="1">
          <mxGeometry x="440" y="330" width="80" height="80" as="geometry" />
        </mxCell>
        <mxCell id="_SxEJ-U8-ntZZmofRHmp-4" value="9" style="text;html=1;align=center;verticalAlign=middle;whiteSpace=wrap;rounded=0;" vertex="1" parent="1">
          <mxGeometry x="450" y="355" width="60" height="30" as="geometry" />
        </mxCell>
        <mxCell id="_SxEJ-U8-ntZZmofRHmp-5" value="" style="shape=flexArrow;endArrow=classic;html=1;rounded=0;width=1.6666666666666665;endSize=3.463888888888889;exitX=1;exitY=0.5;exitDx=0;exitDy=0;fillColor=#dae8fc;strokeColor=#6c8ebf;" edge="1" parent="1" source="_SxEJ-U8-ntZZmofRHmp-1">
          <mxGeometry width="50" height="50" relative="1" as="geometry">
            <mxPoint x="230" y="470" as="sourcePoint" />
            <mxPoint x="310" y="290" as="targetPoint" />
          </mxGeometry>
        </mxCell>
        <mxCell id="_SxEJ-U8-ntZZmofRHmp-6" value="" style="shape=flexArrow;endArrow=classic;html=1;rounded=0;width=26.4;endSize=8.116;exitX=1;exitY=0.5;exitDx=0;exitDy=0;fillColor=#dae8fc;strokeColor=#6c8ebf;" edge="1" parent="1">
          <mxGeometry width="50" height="50" relative="1" as="geometry">
            <mxPoint x="310" y="289.93" as="sourcePoint" />
            <mxPoint x="360" y="289.93" as="targetPoint" />
          </mxGeometry>
        </mxCell>
        <mxCell id="_SxEJ-U8-ntZZmofRHmp-7" value="" style="shape=flexArrow;endArrow=classic;html=1;rounded=0;width=15;endSize=7.136111111111111;exitX=1;exitY=0.5;exitDx=0;exitDy=0;entryX=0;entryY=0.5;entryDx=0;entryDy=0;fillColor=#dae8fc;strokeColor=#6c8ebf;" edge="1" parent="1" target="_SxEJ-U8-ntZZmofRHmp-3">
          <mxGeometry width="50" height="50" relative="1" as="geometry">
            <mxPoint x="360" y="289.86" as="sourcePoint" />
            <mxPoint x="410" y="289.86" as="targetPoint" />
          </mxGeometry>
        </mxCell>
        <mxCell id="_SxEJ-U8-ntZZmofRHmp-8" value="530" style="text;html=1;align=center;verticalAlign=middle;whiteSpace=wrap;rounded=0;fillColor=#dae8fc;strokeColor=#6c8ebf;" vertex="1" parent="1">
          <mxGeometry x="160" y="340" width="60" height="30" as="geometry" />
        </mxCell>
        <mxCell id="_SxEJ-U8-ntZZmofRHmp-9" value="467" style="text;html=1;align=center;verticalAlign=middle;whiteSpace=wrap;rounded=0;fillColor=#dae8fc;strokeColor=#6c8ebf;" vertex="1" parent="1">
          <mxGeometry x="500" y="410" width="60" height="30" as="geometry" />
        </mxCell>
        <mxCell id="_SxEJ-U8-ntZZmofRHmp-10" value="30" style="text;html=1;align=center;verticalAlign=middle;whiteSpace=wrap;rounded=0;fillColor=#f8cecc;strokeColor=#b85450;" vertex="1" parent="1">
          <mxGeometry x="330" y="240" width="60" height="30" as="geometry" />
        </mxCell>
        <mxCell id="_SxEJ-U8-ntZZmofRHmp-11" value="13" style="text;html=1;align=center;verticalAlign=middle;whiteSpace=wrap;rounded=0;fillColor=#f8cecc;strokeColor=#b85450;" vertex="1" parent="1">
          <mxGeometry x="250" y="220" width="60" height="30" as="geometry" />
        </mxCell>
        <mxCell id="_SxEJ-U8-ntZZmofRHmp-12" value="70" style="text;html=1;align=center;verticalAlign=middle;whiteSpace=wrap;rounded=0;fillColor=#f8cecc;strokeColor=#b85450;" vertex="1" parent="1">
          <mxGeometry x="395" y="275" width="60" height="30" as="geometry" />
        </mxCell>
        <mxCell id="_SxEJ-U8-ntZZmofRHmp-13" value="" style="triangle;whiteSpace=wrap;html=1;rotation=90;fillColor=#d5e8d4;strokeColor=#82b366;" vertex="1" parent="1">
          <mxGeometry x="200" y="200" width="30" height="40" as="geometry" />
        </mxCell>
        <mxCell id="_SxEJ-U8-ntZZmofRHmp-14" value="50" style="text;html=1;align=center;verticalAlign=middle;whiteSpace=wrap;rounded=0;fillColor=#d5e8d4;strokeColor=#82b366;" vertex="1" parent="1">
          <mxGeometry x="185" y="160" width="60" height="30" as="geometry" />
        </mxCell>
        <mxCell id="_SxEJ-U8-ntZZmofRHmp-15" value="Pump" style="text;html=1;align=center;verticalAlign=middle;whiteSpace=wrap;rounded=0;" vertex="1" parent="1">
          <mxGeometry x="120" y="210" width="60" height="30" as="geometry" />
        </mxCell>
        <mxCell id="_SxEJ-U8-ntZZmofRHmp-16" value="" style="ellipse;whiteSpace=wrap;html=1;aspect=fixed;" vertex="1" parent="1">
          <mxGeometry x="170" y="540" width="80" height="80" as="geometry" />
        </mxCell>
        <mxCell id="_SxEJ-U8-ntZZmofRHmp-17" value="8" style="text;html=1;align=center;verticalAlign=middle;whiteSpace=wrap;rounded=0;" vertex="1" parent="1">
          <mxGeometry x="180" y="565" width="60" height="30" as="geometry" />
        </mxCell>
        <mxCell id="_SxEJ-U8-ntZZmofRHmp-18" value="" style="ellipse;whiteSpace=wrap;html=1;aspect=fixed;" vertex="1" parent="1">
          <mxGeometry x="430" y="620" width="80" height="80" as="geometry" />
        </mxCell>
        <mxCell id="_SxEJ-U8-ntZZmofRHmp-19" value="9" style="text;html=1;align=center;verticalAlign=middle;whiteSpace=wrap;rounded=0;" vertex="1" parent="1">
          <mxGeometry x="440" y="645" width="60" height="30" as="geometry" />
        </mxCell>
        <mxCell id="_SxEJ-U8-ntZZmofRHmp-20" value="" style="shape=flexArrow;endArrow=classic;html=1;rounded=0;width=1.6666666666666665;endSize=3.463888888888889;exitX=1;exitY=0.5;exitDx=0;exitDy=0;fillColor=#dae8fc;strokeColor=#6c8ebf;" edge="1" parent="1" source="_SxEJ-U8-ntZZmofRHmp-16">
          <mxGeometry width="50" height="50" relative="1" as="geometry">
            <mxPoint x="220" y="760" as="sourcePoint" />
            <mxPoint x="300" y="580" as="targetPoint" />
          </mxGeometry>
        </mxCell>
        <mxCell id="_SxEJ-U8-ntZZmofRHmp-21" value="" style="shape=flexArrow;endArrow=classic;html=1;rounded=0;width=26.4;endSize=8.116;exitX=1;exitY=0.5;exitDx=0;exitDy=0;fillColor=#dae8fc;strokeColor=#6c8ebf;" edge="1" parent="1">
          <mxGeometry width="50" height="50" relative="1" as="geometry">
            <mxPoint x="300" y="579.9300000000001" as="sourcePoint" />
            <mxPoint x="350" y="579.9300000000001" as="targetPoint" />
          </mxGeometry>
        </mxCell>
        <mxCell id="_SxEJ-U8-ntZZmofRHmp-22" value="" style="shape=flexArrow;endArrow=classic;html=1;rounded=0;width=15;endSize=7.136111111111111;exitX=1;exitY=0.5;exitDx=0;exitDy=0;entryX=0;entryY=0.5;entryDx=0;entryDy=0;fillColor=#dae8fc;strokeColor=#6c8ebf;" edge="1" parent="1" target="_SxEJ-U8-ntZZmofRHmp-18">
          <mxGeometry width="50" height="50" relative="1" as="geometry">
            <mxPoint x="350" y="579.86" as="sourcePoint" />
            <mxPoint x="400" y="579.86" as="targetPoint" />
          </mxGeometry>
        </mxCell>
        <mxCell id="_SxEJ-U8-ntZZmofRHmp-23" value="530" style="text;html=1;align=center;verticalAlign=middle;whiteSpace=wrap;rounded=0;fillColor=#dae8fc;strokeColor=#6c8ebf;" vertex="1" parent="1">
          <mxGeometry x="150" y="630" width="60" height="30" as="geometry" />
        </mxCell>
        <mxCell id="_SxEJ-U8-ntZZmofRHmp-24" value="417" style="text;html=1;align=center;verticalAlign=middle;whiteSpace=wrap;rounded=0;fillColor=#dae8fc;strokeColor=#6c8ebf;" vertex="1" parent="1">
          <mxGeometry x="490" y="700" width="60" height="30" as="geometry" />
        </mxCell>
        <mxCell id="_SxEJ-U8-ntZZmofRHmp-25" value="30" style="text;html=1;align=center;verticalAlign=middle;whiteSpace=wrap;rounded=0;fillColor=#f8cecc;strokeColor=#b85450;" vertex="1" parent="1">
          <mxGeometry x="320" y="530" width="60" height="30" as="geometry" />
        </mxCell>
        <mxCell id="_SxEJ-U8-ntZZmofRHmp-26" value="13" style="text;html=1;align=center;verticalAlign=middle;whiteSpace=wrap;rounded=0;fillColor=#f8cecc;strokeColor=#b85450;" vertex="1" parent="1">
          <mxGeometry x="240" y="510" width="60" height="30" as="geometry" />
        </mxCell>
        <mxCell id="_SxEJ-U8-ntZZmofRHmp-27" value="70" style="text;html=1;align=center;verticalAlign=middle;whiteSpace=wrap;rounded=0;fillColor=#f8cecc;strokeColor=#b85450;" vertex="1" parent="1">
          <mxGeometry x="385" y="565" width="60" height="30" as="geometry" />
        </mxCell>
        <mxCell id="_SxEJ-U8-ntZZmofRHmp-28" value="" style="triangle;whiteSpace=wrap;html=1;rotation=90;fillColor=#f5f5f5;strokeColor=#666666;fontColor=#333333;" vertex="1" parent="1">
          <mxGeometry x="190" y="490" width="30" height="40" as="geometry" />
        </mxCell>
        <mxCell id="_SxEJ-U8-ntZZmofRHmp-29" value="50" style="text;html=1;align=center;verticalAlign=middle;whiteSpace=wrap;rounded=0;fillColor=#f5f5f5;strokeColor=#666666;fontColor=#333333;" vertex="1" parent="1">
          <mxGeometry x="175" y="450" width="60" height="30" as="geometry" />
        </mxCell>
        <mxCell id="_SxEJ-U8-ntZZmofRHmp-30" value="Pump" style="text;html=1;align=center;verticalAlign=middle;whiteSpace=wrap;rounded=0;" vertex="1" parent="1">
          <mxGeometry x="110" y="500" width="60" height="30" as="geometry" />
        </mxCell>
      </root>
    </mxGraphModel>
  </diagram>
  <diagram id="QfUkjqd6I0e3c0WaCE39" name="Page-9">
    <mxGraphModel dx="1050" dy="626" grid="1" gridSize="10" guides="1" tooltips="1" connect="1" arrows="1" fold="1" page="1" pageScale="1" pageWidth="850" pageHeight="1100" math="0" shadow="0">
      <root>
        <mxCell id="0" />
        <mxCell id="1" parent="0" />
        <mxCell id="Nlv7C8YPAhA96REUyfzU-1" value="" style="shape=cylinder3;whiteSpace=wrap;html=1;boundedLbl=1;backgroundOutline=1;size=15;fillColor=#fff2cc;strokeColor=#d6b656;" parent="1" vertex="1">
          <mxGeometry x="450" y="150" width="60" height="80" as="geometry" />
        </mxCell>
        <mxCell id="Nlv7C8YPAhA96REUyfzU-2" value="" style="ellipse;whiteSpace=wrap;html=1;aspect=fixed;" parent="1" vertex="1">
          <mxGeometry x="385" y="350" width="80" height="80" as="geometry" />
        </mxCell>
        <mxCell id="Nlv7C8YPAhA96REUyfzU-3" style="edgeStyle=orthogonalEdgeStyle;rounded=0;orthogonalLoop=1;jettySize=auto;html=1;exitX=1;exitY=0.5;exitDx=0;exitDy=0;" parent="1" source="Nlv7C8YPAhA96REUyfzU-4" target="Nlv7C8YPAhA96REUyfzU-5" edge="1">
          <mxGeometry relative="1" as="geometry" />
        </mxCell>
        <mxCell id="Nlv7C8YPAhA96REUyfzU-4" value="" style="ellipse;whiteSpace=wrap;html=1;aspect=fixed;" parent="1" vertex="1">
          <mxGeometry x="440" y="250" width="80" height="80" as="geometry" />
        </mxCell>
        <mxCell id="Nlv7C8YPAhA96REUyfzU-5" value="" style="ellipse;whiteSpace=wrap;html=1;aspect=fixed;" parent="1" vertex="1">
          <mxGeometry x="630" y="260" width="80" height="80" as="geometry" />
        </mxCell>
        <mxCell id="Nlv7C8YPAhA96REUyfzU-6" style="edgeStyle=orthogonalEdgeStyle;rounded=0;orthogonalLoop=1;jettySize=auto;html=1;exitX=0.5;exitY=1;exitDx=0;exitDy=0;entryX=0.682;entryY=-0.01;entryDx=0;entryDy=0;entryPerimeter=0;" parent="1" source="Nlv7C8YPAhA96REUyfzU-4" target="Nlv7C8YPAhA96REUyfzU-2" edge="1">
          <mxGeometry relative="1" as="geometry" />
        </mxCell>
        <mxCell id="Nlv7C8YPAhA96REUyfzU-7" style="edgeStyle=orthogonalEdgeStyle;rounded=0;orthogonalLoop=1;jettySize=auto;html=1;exitX=1;exitY=0.5;exitDx=0;exitDy=0;entryX=0;entryY=0.5;entryDx=0;entryDy=0;fillColor=#f8cecc;strokeColor=#000000;" parent="1" source="Nlv7C8YPAhA96REUyfzU-8" target="Nlv7C8YPAhA96REUyfzU-4" edge="1">
          <mxGeometry relative="1" as="geometry" />
        </mxCell>
        <mxCell id="Nlv7C8YPAhA96REUyfzU-8" value="" style="ellipse;whiteSpace=wrap;html=1;aspect=fixed;" parent="1" vertex="1">
          <mxGeometry x="210" y="250" width="80" height="80" as="geometry" />
        </mxCell>
        <mxCell id="Nlv7C8YPAhA96REUyfzU-9" value="30" style="text;html=1;align=center;verticalAlign=middle;whiteSpace=wrap;rounded=0;fillColor=#dae8fc;strokeColor=#6c8ebf;" parent="1" vertex="1">
          <mxGeometry x="660" y="200" width="60" height="30" as="geometry" />
        </mxCell>
        <mxCell id="Nlv7C8YPAhA96REUyfzU-10" value="10" style="text;html=1;align=center;verticalAlign=middle;whiteSpace=wrap;rounded=0;fillColor=#dae8fc;strokeColor=#6c8ebf;" parent="1" vertex="1">
          <mxGeometry x="350" y="230" width="60" height="30" as="geometry" />
        </mxCell>
        <mxCell id="Nlv7C8YPAhA96REUyfzU-11" value="20" style="text;html=1;align=center;verticalAlign=middle;whiteSpace=wrap;rounded=0;fillColor=#dae8fc;strokeColor=#6c8ebf;" parent="1" vertex="1">
          <mxGeometry x="475" y="385" width="60" height="30" as="geometry" />
        </mxCell>
        <mxCell id="Nlv7C8YPAhA96REUyfzU-12" value="" style="endArrow=classic;html=1;rounded=0;" parent="1" edge="1">
          <mxGeometry width="50" height="50" relative="1" as="geometry">
            <mxPoint x="520" y="200" as="sourcePoint" />
            <mxPoint x="620" y="200" as="targetPoint" />
          </mxGeometry>
        </mxCell>
        <mxCell id="Nlv7C8YPAhA96REUyfzU-13" value="40" style="text;html=1;align=center;verticalAlign=middle;whiteSpace=wrap;rounded=0;fillColor=#fff2cc;strokeColor=#d6b656;" parent="1" vertex="1">
          <mxGeometry x="550" y="160" width="60" height="30" as="geometry" />
        </mxCell>
        <mxCell id="Nlv7C8YPAhA96REUyfzU-14" value="" style="shape=cylinder3;whiteSpace=wrap;html=1;boundedLbl=1;backgroundOutline=1;size=15;fillColor=#fff2cc;strokeColor=#d6b656;" parent="1" vertex="1">
          <mxGeometry x="390" y="480" width="60" height="80" as="geometry" />
        </mxCell>
        <mxCell id="Nlv7C8YPAhA96REUyfzU-15" value="" style="ellipse;whiteSpace=wrap;html=1;aspect=fixed;" parent="1" vertex="1">
          <mxGeometry x="325" y="680" width="80" height="80" as="geometry" />
        </mxCell>
        <mxCell id="Nlv7C8YPAhA96REUyfzU-16" style="edgeStyle=orthogonalEdgeStyle;rounded=0;orthogonalLoop=1;jettySize=auto;html=1;exitX=1;exitY=0.5;exitDx=0;exitDy=0;" parent="1" source="Nlv7C8YPAhA96REUyfzU-17" target="Nlv7C8YPAhA96REUyfzU-18" edge="1">
          <mxGeometry relative="1" as="geometry" />
        </mxCell>
        <mxCell id="Nlv7C8YPAhA96REUyfzU-17" value="" style="ellipse;whiteSpace=wrap;html=1;aspect=fixed;" parent="1" vertex="1">
          <mxGeometry x="380" y="580" width="80" height="80" as="geometry" />
        </mxCell>
        <mxCell id="Nlv7C8YPAhA96REUyfzU-18" value="" style="ellipse;whiteSpace=wrap;html=1;aspect=fixed;" parent="1" vertex="1">
          <mxGeometry x="570" y="590" width="80" height="80" as="geometry" />
        </mxCell>
        <mxCell id="Nlv7C8YPAhA96REUyfzU-19" style="edgeStyle=orthogonalEdgeStyle;rounded=0;orthogonalLoop=1;jettySize=auto;html=1;exitX=0.5;exitY=1;exitDx=0;exitDy=0;entryX=0.682;entryY=-0.01;entryDx=0;entryDy=0;entryPerimeter=0;" parent="1" source="Nlv7C8YPAhA96REUyfzU-17" target="Nlv7C8YPAhA96REUyfzU-15" edge="1">
          <mxGeometry relative="1" as="geometry" />
        </mxCell>
        <mxCell id="Nlv7C8YPAhA96REUyfzU-20" style="edgeStyle=orthogonalEdgeStyle;rounded=0;orthogonalLoop=1;jettySize=auto;html=1;exitX=1;exitY=0.5;exitDx=0;exitDy=0;entryX=0;entryY=0.5;entryDx=0;entryDy=0;fillColor=#f8cecc;strokeColor=#000000;" parent="1" source="Nlv7C8YPAhA96REUyfzU-21" target="Nlv7C8YPAhA96REUyfzU-17" edge="1">
          <mxGeometry relative="1" as="geometry" />
        </mxCell>
        <mxCell id="Nlv7C8YPAhA96REUyfzU-21" value="" style="ellipse;whiteSpace=wrap;html=1;aspect=fixed;" parent="1" vertex="1">
          <mxGeometry x="150" y="580" width="80" height="80" as="geometry" />
        </mxCell>
        <mxCell id="Nlv7C8YPAhA96REUyfzU-22" value="30" style="text;html=1;align=center;verticalAlign=middle;whiteSpace=wrap;rounded=0;fillColor=#dae8fc;strokeColor=#6c8ebf;" parent="1" vertex="1">
          <mxGeometry x="600" y="530" width="60" height="30" as="geometry" />
        </mxCell>
        <mxCell id="Nlv7C8YPAhA96REUyfzU-23" value="100" style="text;html=1;align=center;verticalAlign=middle;whiteSpace=wrap;rounded=0;fillColor=#dae8fc;strokeColor=#6c8ebf;" parent="1" vertex="1">
          <mxGeometry x="290" y="560" width="60" height="30" as="geometry" />
        </mxCell>
        <mxCell id="Nlv7C8YPAhA96REUyfzU-24" value="20" style="text;html=1;align=center;verticalAlign=middle;whiteSpace=wrap;rounded=0;fillColor=#dae8fc;strokeColor=#6c8ebf;" parent="1" vertex="1">
          <mxGeometry x="415" y="715" width="60" height="30" as="geometry" />
        </mxCell>
        <mxCell id="Nlv7C8YPAhA96REUyfzU-25" value="" style="endArrow=classic;html=1;rounded=0;" parent="1" edge="1">
          <mxGeometry width="50" height="50" relative="1" as="geometry">
            <mxPoint x="580" y="540" as="sourcePoint" />
            <mxPoint x="470" y="540" as="targetPoint" />
          </mxGeometry>
        </mxCell>
        <mxCell id="Nlv7C8YPAhA96REUyfzU-26" value="- 40" style="text;html=1;align=center;verticalAlign=middle;whiteSpace=wrap;rounded=0;fillColor=#fff2cc;strokeColor=#d6b656;" parent="1" vertex="1">
          <mxGeometry x="490" y="490" width="60" height="30" as="geometry" />
        </mxCell>
        <mxCell id="aHB6LVTyx-8XoNnU4m-k-1" value="" style="rounded=1;whiteSpace=wrap;html=1;fillColor=#e1d5e7;strokeColor=#9673a6;" vertex="1" parent="1">
          <mxGeometry x="450" y="195" width="60" height="35" as="geometry" />
        </mxCell>
        <mxCell id="aHB6LVTyx-8XoNnU4m-k-2" value="" style="rounded=0;whiteSpace=wrap;html=1;fillColor=#B266FF;" vertex="1" parent="1">
          <mxGeometry x="450" y="210" width="60" height="20" as="geometry" />
        </mxCell>
        <mxCell id="aHB6LVTyx-8XoNnU4m-k-3" value="" style="rounded=1;whiteSpace=wrap;html=1;fillColor=#e1d5e7;strokeColor=#9673a6;" vertex="1" parent="1">
          <mxGeometry x="390" y="525" width="60" height="35" as="geometry" />
        </mxCell>
        <mxCell id="aHB6LVTyx-8XoNnU4m-k-4" value="" style="rounded=0;whiteSpace=wrap;html=1;fillColor=#B266FF;" vertex="1" parent="1">
          <mxGeometry x="390" y="520" width="60" height="10" as="geometry" />
        </mxCell>
      </root>
    </mxGraphModel>
  </diagram>
  <diagram id="8YFXIw0mpypGxTbpOY3U" name="Page-10">
    <mxGraphModel dx="1050" dy="626" grid="1" gridSize="10" guides="1" tooltips="1" connect="1" arrows="1" fold="1" page="1" pageScale="1" pageWidth="850" pageHeight="1100" math="0" shadow="0">
      <root>
        <mxCell id="0" />
        <mxCell id="1" parent="0" />
        <mxCell id="8Yqt3DqtvHAn22X7Sq0J-1" value="" style="shape=cylinder3;whiteSpace=wrap;html=1;boundedLbl=1;backgroundOutline=1;size=15;fillColor=#fff2cc;strokeColor=#d6b656;" vertex="1" parent="1">
          <mxGeometry x="450" y="150" width="60" height="80" as="geometry" />
        </mxCell>
        <mxCell id="8Yqt3DqtvHAn22X7Sq0J-2" value="" style="ellipse;whiteSpace=wrap;html=1;aspect=fixed;" vertex="1" parent="1">
          <mxGeometry x="385" y="350" width="80" height="80" as="geometry" />
        </mxCell>
        <mxCell id="8Yqt3DqtvHAn22X7Sq0J-3" style="edgeStyle=orthogonalEdgeStyle;rounded=0;orthogonalLoop=1;jettySize=auto;html=1;exitX=1;exitY=0.5;exitDx=0;exitDy=0;" edge="1" parent="1" source="8Yqt3DqtvHAn22X7Sq0J-4" target="8Yqt3DqtvHAn22X7Sq0J-5">
          <mxGeometry relative="1" as="geometry" />
        </mxCell>
        <mxCell id="8Yqt3DqtvHAn22X7Sq0J-4" value="" style="ellipse;whiteSpace=wrap;html=1;aspect=fixed;" vertex="1" parent="1">
          <mxGeometry x="440" y="250" width="80" height="80" as="geometry" />
        </mxCell>
        <mxCell id="8Yqt3DqtvHAn22X7Sq0J-5" value="" style="ellipse;whiteSpace=wrap;html=1;aspect=fixed;" vertex="1" parent="1">
          <mxGeometry x="630" y="260" width="80" height="80" as="geometry" />
        </mxCell>
        <mxCell id="8Yqt3DqtvHAn22X7Sq0J-6" style="edgeStyle=orthogonalEdgeStyle;rounded=0;orthogonalLoop=1;jettySize=auto;html=1;exitX=0.5;exitY=1;exitDx=0;exitDy=0;entryX=0.682;entryY=-0.01;entryDx=0;entryDy=0;entryPerimeter=0;" edge="1" parent="1" source="8Yqt3DqtvHAn22X7Sq0J-4" target="8Yqt3DqtvHAn22X7Sq0J-2">
          <mxGeometry relative="1" as="geometry" />
        </mxCell>
        <mxCell id="8Yqt3DqtvHAn22X7Sq0J-7" style="edgeStyle=orthogonalEdgeStyle;rounded=0;orthogonalLoop=1;jettySize=auto;html=1;exitX=1;exitY=0.5;exitDx=0;exitDy=0;entryX=0;entryY=0.5;entryDx=0;entryDy=0;fillColor=#f8cecc;strokeColor=#000000;" edge="1" parent="1" source="8Yqt3DqtvHAn22X7Sq0J-8" target="8Yqt3DqtvHAn22X7Sq0J-4">
          <mxGeometry relative="1" as="geometry" />
        </mxCell>
        <mxCell id="8Yqt3DqtvHAn22X7Sq0J-8" value="" style="ellipse;whiteSpace=wrap;html=1;aspect=fixed;" vertex="1" parent="1">
          <mxGeometry x="210" y="250" width="80" height="80" as="geometry" />
        </mxCell>
        <mxCell id="8Yqt3DqtvHAn22X7Sq0J-9" value="30" style="text;html=1;align=center;verticalAlign=middle;whiteSpace=wrap;rounded=0;fillColor=#dae8fc;strokeColor=#6c8ebf;" vertex="1" parent="1">
          <mxGeometry x="660" y="200" width="60" height="30" as="geometry" />
        </mxCell>
        <mxCell id="8Yqt3DqtvHAn22X7Sq0J-10" value="10" style="text;html=1;align=center;verticalAlign=middle;whiteSpace=wrap;rounded=0;fillColor=#dae8fc;strokeColor=#6c8ebf;" vertex="1" parent="1">
          <mxGeometry x="350" y="230" width="60" height="30" as="geometry" />
        </mxCell>
        <mxCell id="8Yqt3DqtvHAn22X7Sq0J-11" value="20" style="text;html=1;align=center;verticalAlign=middle;whiteSpace=wrap;rounded=0;fillColor=#dae8fc;strokeColor=#6c8ebf;" vertex="1" parent="1">
          <mxGeometry x="475" y="385" width="60" height="30" as="geometry" />
        </mxCell>
        <mxCell id="8Yqt3DqtvHAn22X7Sq0J-12" value="" style="endArrow=classic;html=1;rounded=0;" edge="1" parent="1">
          <mxGeometry width="50" height="50" relative="1" as="geometry">
            <mxPoint x="520" y="200" as="sourcePoint" />
            <mxPoint x="620" y="200" as="targetPoint" />
          </mxGeometry>
        </mxCell>
        <mxCell id="8Yqt3DqtvHAn22X7Sq0J-13" value="40" style="text;html=1;align=center;verticalAlign=middle;whiteSpace=wrap;rounded=0;fillColor=#fff2cc;strokeColor=#d6b656;" vertex="1" parent="1">
          <mxGeometry x="550" y="160" width="60" height="30" as="geometry" />
        </mxCell>
        <mxCell id="8Yqt3DqtvHAn22X7Sq0J-14" value="" style="shape=cylinder3;whiteSpace=wrap;html=1;boundedLbl=1;backgroundOutline=1;size=15;fillColor=#f5f5f5;strokeColor=#666666;fontColor=#333333;" vertex="1" parent="1">
          <mxGeometry x="470" y="510" width="60" height="80" as="geometry" />
        </mxCell>
        <mxCell id="8Yqt3DqtvHAn22X7Sq0J-15" value="" style="ellipse;whiteSpace=wrap;html=1;aspect=fixed;" vertex="1" parent="1">
          <mxGeometry x="405" y="710" width="80" height="80" as="geometry" />
        </mxCell>
        <mxCell id="8Yqt3DqtvHAn22X7Sq0J-16" style="edgeStyle=orthogonalEdgeStyle;rounded=0;orthogonalLoop=1;jettySize=auto;html=1;exitX=1;exitY=0.5;exitDx=0;exitDy=0;" edge="1" parent="1" source="8Yqt3DqtvHAn22X7Sq0J-17" target="8Yqt3DqtvHAn22X7Sq0J-18">
          <mxGeometry relative="1" as="geometry" />
        </mxCell>
        <mxCell id="8Yqt3DqtvHAn22X7Sq0J-17" value="" style="ellipse;whiteSpace=wrap;html=1;aspect=fixed;" vertex="1" parent="1">
          <mxGeometry x="460" y="610" width="80" height="80" as="geometry" />
        </mxCell>
        <mxCell id="8Yqt3DqtvHAn22X7Sq0J-18" value="" style="ellipse;whiteSpace=wrap;html=1;aspect=fixed;" vertex="1" parent="1">
          <mxGeometry x="650" y="620" width="80" height="80" as="geometry" />
        </mxCell>
        <mxCell id="8Yqt3DqtvHAn22X7Sq0J-19" style="edgeStyle=orthogonalEdgeStyle;rounded=0;orthogonalLoop=1;jettySize=auto;html=1;exitX=0.5;exitY=1;exitDx=0;exitDy=0;entryX=0.682;entryY=-0.01;entryDx=0;entryDy=0;entryPerimeter=0;" edge="1" parent="1" source="8Yqt3DqtvHAn22X7Sq0J-17" target="8Yqt3DqtvHAn22X7Sq0J-15">
          <mxGeometry relative="1" as="geometry" />
        </mxCell>
        <mxCell id="8Yqt3DqtvHAn22X7Sq0J-20" style="edgeStyle=orthogonalEdgeStyle;rounded=0;orthogonalLoop=1;jettySize=auto;html=1;exitX=1;exitY=0.5;exitDx=0;exitDy=0;entryX=0;entryY=0.5;entryDx=0;entryDy=0;fillColor=#f8cecc;strokeColor=#000000;" edge="1" parent="1" source="8Yqt3DqtvHAn22X7Sq0J-21" target="8Yqt3DqtvHAn22X7Sq0J-17">
          <mxGeometry relative="1" as="geometry" />
        </mxCell>
        <mxCell id="8Yqt3DqtvHAn22X7Sq0J-21" value="" style="ellipse;whiteSpace=wrap;html=1;aspect=fixed;" vertex="1" parent="1">
          <mxGeometry x="230" y="610" width="80" height="80" as="geometry" />
        </mxCell>
        <mxCell id="8Yqt3DqtvHAn22X7Sq0J-22" value="30" style="text;html=1;align=center;verticalAlign=middle;whiteSpace=wrap;rounded=0;fillColor=#dae8fc;strokeColor=#6c8ebf;" vertex="1" parent="1">
          <mxGeometry x="680" y="560" width="60" height="30" as="geometry" />
        </mxCell>
        <mxCell id="8Yqt3DqtvHAn22X7Sq0J-23" value="60" style="text;html=1;align=center;verticalAlign=middle;whiteSpace=wrap;rounded=0;fillColor=#dae8fc;strokeColor=#6c8ebf;" vertex="1" parent="1">
          <mxGeometry x="370" y="590" width="60" height="30" as="geometry" />
        </mxCell>
        <mxCell id="8Yqt3DqtvHAn22X7Sq0J-24" value="20" style="text;html=1;align=center;verticalAlign=middle;whiteSpace=wrap;rounded=0;fillColor=#dae8fc;strokeColor=#6c8ebf;" vertex="1" parent="1">
          <mxGeometry x="495" y="745" width="60" height="30" as="geometry" />
        </mxCell>
        <mxCell id="8Yqt3DqtvHAn22X7Sq0J-26" value="0" style="text;html=1;align=center;verticalAlign=middle;whiteSpace=wrap;rounded=0;fillColor=#f5f5f5;strokeColor=#666666;fontColor=#333333;" vertex="1" parent="1">
          <mxGeometry x="570" y="520" width="60" height="30" as="geometry" />
        </mxCell>
      </root>
    </mxGraphModel>
  </diagram>
  <diagram id="lcYkNCd4zlXxks7O_qJu" name="Tank level change">
    <mxGraphModel dx="1050" dy="626" grid="1" gridSize="10" guides="1" tooltips="1" connect="1" arrows="1" fold="1" page="1" pageScale="1" pageWidth="850" pageHeight="1100" math="0" shadow="0">
      <root>
        <mxCell id="0" />
        <mxCell id="1" parent="0" />
        <mxCell id="dp8wyPH7aFHiNr6-lGLB-1" value="" style="shape=cylinder3;whiteSpace=wrap;html=1;boundedLbl=1;backgroundOutline=1;size=15;fillColor=#fff2cc;strokeColor=#d6b656;" vertex="1" parent="1">
          <mxGeometry x="340" y="110" width="160" height="150" as="geometry" />
        </mxCell>
        <mxCell id="dp8wyPH7aFHiNr6-lGLB-2" value="" style="ellipse;whiteSpace=wrap;html=1;aspect=fixed;" vertex="1" parent="1">
          <mxGeometry x="670" y="370" width="80" height="80" as="geometry" />
        </mxCell>
        <mxCell id="dp8wyPH7aFHiNr6-lGLB-3" value="" style="ellipse;whiteSpace=wrap;html=1;aspect=fixed;" vertex="1" parent="1">
          <mxGeometry x="400" y="290" width="80" height="80" as="geometry" />
        </mxCell>
        <mxCell id="dp8wyPH7aFHiNr6-lGLB-5" value="" style="rounded=1;whiteSpace=wrap;html=1;fillColor=#e1d5e7;strokeColor=#9673a6;" vertex="1" parent="1">
          <mxGeometry x="340" y="180" width="160" height="80" as="geometry" />
        </mxCell>
        <mxCell id="dp8wyPH7aFHiNr6-lGLB-8" value="20" style="text;html=1;align=center;verticalAlign=middle;whiteSpace=wrap;rounded=0;fillColor=#e1d5e7;strokeColor=#9673a6;" vertex="1" parent="1">
          <mxGeometry x="510" y="205" width="60" height="30" as="geometry" />
        </mxCell>
        <mxCell id="dp8wyPH7aFHiNr6-lGLB-9" value="" style="rounded=0;whiteSpace=wrap;html=1;fillColor=#9933FF;" vertex="1" parent="1">
          <mxGeometry x="340" y="155" width="160" height="25" as="geometry" />
        </mxCell>
        <mxCell id="dp8wyPH7aFHiNr6-lGLB-10" value="25" style="text;html=1;align=center;verticalAlign=middle;whiteSpace=wrap;rounded=0;fillColor=#B266FF;strokeColor=#9673a6;" vertex="1" parent="1">
          <mxGeometry x="510" y="152.5" width="60" height="30" as="geometry" />
        </mxCell>
        <mxCell id="dp8wyPH7aFHiNr6-lGLB-12" style="edgeStyle=orthogonalEdgeStyle;rounded=0;orthogonalLoop=1;jettySize=auto;html=1;exitX=1;exitY=0.5;exitDx=0;exitDy=0;entryX=-0.075;entryY=0.445;entryDx=0;entryDy=0;entryPerimeter=0;" edge="1" parent="1" source="dp8wyPH7aFHiNr6-lGLB-3" target="dp8wyPH7aFHiNr6-lGLB-2">
          <mxGeometry relative="1" as="geometry" />
        </mxCell>
        <mxCell id="dp8wyPH7aFHiNr6-lGLB-13" value="" style="endArrow=classic;html=1;rounded=0;" edge="1" parent="1">
          <mxGeometry width="50" height="50" relative="1" as="geometry">
            <mxPoint x="610" y="310" as="sourcePoint" />
            <mxPoint x="510" y="310" as="targetPoint" />
          </mxGeometry>
        </mxCell>
        <mxCell id="dp8wyPH7aFHiNr6-lGLB-14" value="-50" style="text;html=1;align=center;verticalAlign=middle;whiteSpace=wrap;rounded=0;fillColor=#fff2cc;strokeColor=#d6b656;" vertex="1" parent="1">
          <mxGeometry x="540" y="270" width="60" height="30" as="geometry" />
        </mxCell>
        <mxCell id="dp8wyPH7aFHiNr6-lGLB-15" value="50" style="text;html=1;align=center;verticalAlign=middle;whiteSpace=wrap;rounded=0;fillColor=#dae8fc;strokeColor=#6c8ebf;" vertex="1" parent="1">
          <mxGeometry x="580" y="420" width="60" height="30" as="geometry" />
        </mxCell>
        <mxCell id="dp8wyPH7aFHiNr6-lGLB-16" value="100" style="text;html=1;align=center;verticalAlign=middle;whiteSpace=wrap;rounded=0;fillColor=#dae8fc;strokeColor=#6c8ebf;" vertex="1" parent="1">
          <mxGeometry x="240" y="280" width="60" height="30" as="geometry" />
        </mxCell>
        <mxCell id="-N1YIokJ6zPW2RkAvuXH-2" style="edgeStyle=orthogonalEdgeStyle;rounded=0;orthogonalLoop=1;jettySize=auto;html=1;exitX=1;exitY=0.5;exitDx=0;exitDy=0;entryX=0;entryY=0.5;entryDx=0;entryDy=0;" edge="1" parent="1" source="-N1YIokJ6zPW2RkAvuXH-1" target="dp8wyPH7aFHiNr6-lGLB-3">
          <mxGeometry relative="1" as="geometry" />
        </mxCell>
        <mxCell id="-N1YIokJ6zPW2RkAvuXH-1" value="" style="ellipse;whiteSpace=wrap;html=1;aspect=fixed;" vertex="1" parent="1">
          <mxGeometry x="130" y="290" width="80" height="80" as="geometry" />
        </mxCell>
      </root>
    </mxGraphModel>
  </diagram>
</mxfile>
